<svg width="133" height="33" viewBox="0 0 133 33" fill="none" xmlns="http://www.w3.org/2000/svg">
<path d="M17.6481 24.4583V17.1119H20.2796L20.6736 14.2489H17.648V12.421C17.648 11.5921 17.8936 11.0272 19.1622 11.0272L20.7801 11.0265V8.46583C20.5003 8.431 19.5398 8.35303 18.4226 8.35303C16.0898 8.35303 14.4928 9.68724 14.4928 12.1375V14.2489H11.8545V17.1119H14.4928V24.4582H17.6481V24.4583Z" fill="#071210"/>
<path d="M69.5208 10.0829V10.0801H70.276L70.5519 10.1335C70.7359 10.1681 70.9029 10.2135 71.0529 10.2697C71.203 10.3259 71.3482 10.3915 71.4886 10.4664C71.629 10.5413 71.7563 10.6176 71.8705 10.6953C71.9838 10.7721 72.0855 10.8536 72.1755 10.9398C72.2646 11.0269 72.4035 11.0493 72.5923 11.0072C72.7811 10.9651 72.9844 10.9065 73.2022 10.8316C73.4201 10.7567 73.6355 10.6724 73.8485 10.5788C74.0615 10.4851 74.1912 10.4256 74.2377 10.4004C74.2832 10.3741 74.3074 10.3601 74.3103 10.3582L74.3132 10.354L74.3277 10.347L74.3422 10.34L74.3567 10.3329L74.3713 10.3259L74.3742 10.3217L74.3785 10.3189L74.3829 10.3161L74.3858 10.3119L74.4003 10.3076L74.4148 10.3048L74.4119 10.3259L74.4076 10.347L74.4003 10.368L74.3931 10.3891L74.3858 10.4032L74.3785 10.4172L74.3713 10.4383C74.3664 10.4523 74.3616 10.4711 74.3567 10.4945C74.3519 10.5179 74.3059 10.6115 74.2188 10.7754C74.1317 10.9393 74.0227 11.1055 73.892 11.2741C73.7613 11.4427 73.6442 11.57 73.5406 11.6562C73.436 11.7433 73.3668 11.8041 73.3329 11.8388C73.299 11.8744 73.2579 11.9072 73.2095 11.9371L73.1369 11.9835L73.1223 11.9905L73.1078 11.9975L73.1049 12.0017L73.1006 12.0046L73.0962 12.0074L73.0933 12.0116L73.0788 12.0186L73.0643 12.0256L73.0614 12.0298L73.057 12.0327L73.0526 12.0355L73.0497 12.0397L73.0468 12.0439L73.0425 12.0467L73.0381 12.0495L73.0352 12.0537H73.1078L73.5145 11.9694C73.7855 11.9132 74.0445 11.8454 74.2914 11.7658L74.6835 11.6393L74.7271 11.6253L74.7488 11.6183L74.7634 11.6112L74.7779 11.6042L74.7924 11.5972L74.8069 11.5902L74.836 11.5859L74.865 11.5831V11.6112L74.8578 11.614L74.8505 11.6183L74.8476 11.6225L74.8432 11.6253L74.8389 11.6281L74.836 11.6323L74.8331 11.6365L74.8287 11.6393L74.8244 11.6421L74.8215 11.6464L74.8186 11.6506L74.8142 11.6534L74.8069 11.6674L74.7997 11.6815L74.7953 11.6843C74.7934 11.6871 74.7319 11.7667 74.6109 11.9231C74.4899 12.0804 74.4245 12.16 74.4148 12.1619C74.4052 12.1647 74.3916 12.1787 74.3742 12.204C74.3577 12.2302 74.2551 12.3347 74.0663 12.5173C73.8775 12.6999 73.6926 12.8624 73.5116 13.0047C73.3296 13.148 73.2376 13.3241 73.2356 13.5329C73.2327 13.7408 73.2216 13.9759 73.2022 14.2381C73.1829 14.5003 73.1466 14.7836 73.0933 15.0879C73.0401 15.3923 72.9578 15.7365 72.8464 16.1204C72.7351 16.5044 72.5995 16.879 72.4398 17.2442C72.2801 17.6094 72.113 17.9372 71.9388 18.2275C71.7645 18.5178 71.6048 18.7636 71.4595 18.965C71.3143 19.1663 71.1667 19.356 71.0166 19.5339C70.8666 19.7118 70.6768 19.9123 70.4474 20.1351C70.2169 20.3571 70.0911 20.4788 70.0698 20.5004C70.0475 20.521 69.9526 20.5978 69.7851 20.7307C69.6186 20.8646 69.4395 20.9986 69.2478 21.1325C69.0571 21.2655 68.8818 21.3764 68.7221 21.4654C68.5623 21.5544 68.3697 21.656 68.1441 21.7702C67.9195 21.8854 67.6765 21.9922 67.4151 22.0905C67.1537 22.1888 66.8777 22.2801 66.5873 22.3644C66.2969 22.4487 66.0161 22.5143 65.745 22.5611C65.4739 22.6079 65.1665 22.6477 64.8228 22.6805L64.3073 22.7297V22.7367H63.3633V22.7297L63.2399 22.7226C63.1576 22.718 63.0898 22.7133 63.0366 22.7086C62.9834 22.7039 62.7825 22.6781 62.4339 22.6313C62.0854 22.5845 61.8119 22.5377 61.6134 22.4909C61.4149 22.444 61.1196 22.3551 60.7275 22.224C60.3354 22.0929 60 21.9603 59.7211 21.8264C59.4433 21.6934 59.269 21.6092 59.1983 21.5736C59.1286 21.5389 59.0502 21.4958 58.9631 21.4443L58.8324 21.3671L58.8295 21.3629L58.8251 21.3601L58.8208 21.3572L58.8179 21.353L58.8033 21.346L58.7888 21.339L58.7859 21.3348L58.7815 21.332L58.7772 21.3291L58.7743 21.3249L58.7714 21.3207L58.767 21.3179H58.7598V21.2898L58.7743 21.2926L58.7888 21.2968L58.8542 21.3039C58.8977 21.3085 59.0163 21.3156 59.21 21.3249C59.4036 21.3343 59.6093 21.3343 59.8272 21.3249C60.045 21.3156 60.2677 21.2945 60.4952 21.2617C60.7227 21.2289 60.9914 21.1728 61.3012 21.0932C61.611 21.0135 61.8956 20.919 62.1551 20.8094C62.4136 20.6989 62.5975 20.6165 62.7069 20.5622C62.8154 20.5088 62.9809 20.4095 63.2036 20.2644L63.5376 20.0466L63.5405 20.0424L63.5449 20.0396L63.5492 20.0368L63.5521 20.0326L63.555 20.0284L63.5594 20.0256L63.5638 20.0227L63.5667 20.0185L63.5812 20.0143L63.5957 20.0115L63.5986 19.9975L63.603 19.9834L63.6073 19.9806L63.6102 19.9764L63.494 19.9694C63.4166 19.9647 63.3416 19.96 63.2689 19.9553C63.1963 19.9506 63.0826 19.9296 62.9277 19.8921C62.7728 19.8546 62.6058 19.7985 62.4267 19.7235C62.2475 19.6486 62.0733 19.5597 61.9038 19.4566C61.7344 19.3536 61.612 19.2679 61.5364 19.1996C61.4619 19.1321 61.3651 19.0366 61.246 18.913C61.1279 18.7885 61.0252 18.6606 60.9381 18.5295C60.851 18.3984 60.7677 18.2472 60.6883 18.0758L60.5678 17.8201L60.5605 17.7991L60.5533 17.778L60.5489 17.7639L60.546 17.7499L60.5678 17.7527L60.5896 17.7569L60.7493 17.778C60.8558 17.792 61.0228 17.7967 61.2503 17.792C61.4779 17.7874 61.6352 17.778 61.7223 17.7639C61.8095 17.7499 61.8627 17.7405 61.8821 17.7358L61.9111 17.7288L61.9474 17.7218L61.9837 17.7148L61.9866 17.7106L61.991 17.7078L61.9954 17.7049L61.9982 17.7007L61.9692 17.6937L61.9402 17.6867L61.9111 17.6797L61.8821 17.6726L61.853 17.6656C61.8337 17.6609 61.7998 17.6516 61.7514 17.6375C61.703 17.6235 61.5723 17.572 61.3593 17.483C61.1463 17.394 60.9768 17.3074 60.851 17.2231C60.7248 17.1386 60.6045 17.0462 60.4908 16.9464C60.3776 16.8453 60.2532 16.7151 60.1176 16.5559C59.9821 16.3967 59.8611 16.2117 59.7545 16.001C59.6481 15.7903 59.5682 15.589 59.5149 15.397C59.4619 15.2061 59.4269 15.011 59.4104 14.814L59.3842 14.519L59.3987 14.5218L59.4133 14.526L59.4278 14.5331L59.4423 14.5401L59.4568 14.5471L59.4714 14.5541L59.6965 14.6525C59.8465 14.718 60.0329 14.7742 60.2556 14.821C60.4783 14.8679 60.6114 14.8936 60.6549 14.8983L60.7203 14.9053H60.851L60.8481 14.9011L60.8437 14.8983L60.8394 14.8955L60.8365 14.8913L60.8336 14.8871L60.8292 14.8843L60.8248 14.8814L60.8219 14.8772L60.8074 14.8702L60.7929 14.8632L60.79 14.859L60.7856 14.8562L60.7813 14.8533L60.7784 14.8491L60.7638 14.8421L60.7493 14.8351L60.7464 14.8309C60.7435 14.829 60.7019 14.799 60.6215 14.741C60.5421 14.682 60.4589 14.6057 60.3717 14.512C60.2846 14.4183 60.1975 14.32 60.1103 14.217C60.023 14.1138 59.9453 14.0033 59.878 13.8869C59.8102 13.7698 59.7386 13.6209 59.6631 13.4402C59.5885 13.2604 59.5319 13.0792 59.4931 12.8966C59.4544 12.7139 59.4326 12.5337 59.4278 12.3557C59.423 12.1778 59.4278 12.0256 59.4423 11.8992C59.4568 11.7728 59.4859 11.63 59.5294 11.4708C59.573 11.3116 59.636 11.143 59.7182 10.9651L59.8417 10.6982L59.8489 10.6771L59.8562 10.656L59.8606 10.6532L59.8635 10.649L59.8664 10.6448L59.8707 10.642L59.8751 10.6448L59.878 10.649L59.8809 10.6532L59.8852 10.656L59.8896 10.6588L59.8925 10.663L59.8954 10.6673L59.8998 10.6701L59.907 10.6841L59.9143 10.6982L59.9187 10.701L59.9216 10.7052L60.1176 10.9159C60.2483 11.0564 60.4032 11.2132 60.5823 11.3865C60.7614 11.5597 60.8607 11.6496 60.88 11.6562C60.8994 11.6637 60.9236 11.6852 60.9526 11.7208C60.9817 11.7555 61.0785 11.8383 61.2431 11.9694C61.4077 12.1005 61.6231 12.2527 61.8893 12.426C62.1556 12.5992 62.4509 12.7701 62.7752 12.9387C63.0995 13.1073 63.4481 13.2594 63.8208 13.3952C64.1935 13.531 64.4549 13.62 64.605 13.6621C64.7551 13.7043 65.0116 13.7581 65.3747 13.8237C65.7377 13.8892 66.0113 13.9314 66.1952 13.9501C66.3792 13.9688 66.505 13.9796 66.5728 13.9824L66.6744 13.9852L66.6715 13.9642L66.6672 13.9431L66.6381 13.7675C66.6188 13.6504 66.6091 13.4865 66.6091 13.2758C66.6091 13.0651 66.626 12.8708 66.6599 12.6929C66.6938 12.5149 66.7446 12.3347 66.8124 12.1521C66.8802 11.9694 66.9465 11.8229 67.0114 11.7124C67.0772 11.6028 67.1634 11.4778 67.2699 11.3373C67.3764 11.1968 67.5143 11.0517 67.6837 10.9018C67.8532 10.752 68.0468 10.6186 68.2646 10.5015C68.4825 10.3844 68.6834 10.2955 68.8673 10.2346C69.0513 10.1737 69.2062 10.1339 69.332 10.1152C69.4579 10.0965 69.5208 10.0857 69.5208 10.0829Z" fill="#071210"/>
<path d="M116.812 8.35303C120.029 8.35303 121.637 8.35312 122.796 9.11963C123.313 9.46191 123.756 9.90507 124.099 10.4224C124.865 11.5808 124.865 13.1892 124.865 16.4058C124.865 19.6223 124.865 21.2307 124.099 22.3892C123.756 22.9065 123.313 23.3496 122.796 23.6919C121.637 24.4584 120.029 24.4585 116.812 24.4585C113.596 24.4585 111.988 24.4583 110.829 23.6919C110.312 23.3496 109.869 22.9064 109.526 22.3892C108.76 21.2307 108.76 19.6224 108.76 16.4058C108.76 13.1892 108.76 11.5808 109.526 10.4224C109.869 9.90506 110.312 9.46191 110.829 9.11963C111.988 8.35319 113.596 8.35303 116.812 8.35303ZM116.812 12.2368C114.51 12.2368 112.644 14.1034 112.644 16.4058C112.644 18.7082 114.51 20.5747 116.812 20.5747C119.115 20.5746 120.981 18.7081 120.981 16.4058C120.981 14.1034 119.115 12.2369 116.812 12.2368ZM116.812 13.647C118.336 13.6471 119.57 14.8824 119.57 16.4058C119.57 17.9291 118.336 19.1644 116.812 19.1646C115.289 19.1646 114.054 17.9292 114.054 16.4058C114.054 14.8823 115.289 13.647 116.812 13.647ZM121.146 11.0483C120.605 11.0483 120.166 11.4868 120.166 12.0278C120.166 12.5687 120.605 13.0073 121.146 13.0073C121.686 13.0073 122.125 12.5686 122.125 12.0278C122.125 11.4869 121.686 11.0484 121.146 11.0483Z" fill="#071210"/>
<circle cx="16.5" cy="16.5" r="16.25" stroke="#071210" stroke-width="0.5"/>
<circle cx="66.5" cy="16.5" r="16.25" stroke="#071210" stroke-width="0.5"/>
<circle cx="116.5" cy="16.5" r="16.25" stroke="#071210" stroke-width="0.5"/>
</svg>
