<svg width="36" height="36" viewBox="0 0 36 36" fill="none" xmlns="http://www.w3.org/2000/svg">
<g id="ic_Menu">
<path id="Shape" d="M32.8652 27.7456C33.7681 27.7458 34.5 28.4839 34.5 29.395C34.5 30.3062 33.7681 31.0442 32.8652 31.0444H3.13477C2.23188 31.0442 1.5 30.3062 1.5 29.395C1.50004 28.4839 2.2319 27.7458 3.13477 27.7456H32.8652ZM32.8652 16.1221C33.7681 16.1223 34.5 16.8618 34.5 17.7729C34.4998 18.6839 33.768 19.4222 32.8652 19.4224H3.13477C2.23201 19.4222 1.50022 18.6839 1.5 17.7729C1.5 16.8618 2.23188 16.1223 3.13477 16.1221H32.8652ZM32.8652 4.5C33.7679 4.5002 34.4997 5.23854 34.5 6.14941C34.5 7.06056 33.7681 7.80009 32.8652 7.80029H3.13477C2.23188 7.80009 1.5 7.06056 1.5 6.14941C1.50031 5.23854 2.23207 4.5002 3.13477 4.5H32.8652Z" fill="#3A4C66"/>
</g>
</svg>
